<?xml version="1.0" encoding="utf-8"?>
<!-- Generator: Adobe Illustrator 16.0.0, SVG Export Plug-In . SVG Version: 6.00 Build 0)  -->
<!DOCTYPE svg PUBLIC "-//W3C//DTD SVG 1.1//EN" "http://www.w3.org/Graphics/SVG/1.1/DTD/svg11.dtd" [
	<!ENTITY ns_flows "http://ns.adobe.com/Flows/1.0/">
	<!ENTITY ns_extend "http://ns.adobe.com/Extensibility/1.0/">
	<!ENTITY ns_ai "http://ns.adobe.com/AdobeIllustrator/10.0/">
	<!ENTITY ns_graphs "http://ns.adobe.com/Graphs/1.0/">
]>
<svg version="1.1" id="Layer_1" xmlns:x="&ns_extend;" xmlns:i="&ns_ai;" xmlns:graph="&ns_graphs;"
	 xmlns="http://www.w3.org/2000/svg" xmlns:xlink="http://www.w3.org/1999/xlink" xmlns:a="http://ns.adobe.com/AdobeSVGViewerExtensions/3.0/"
	 x="0px" y="0px" width="82.2px" height="130.39px" viewBox="0 0 82.2 130.39" enable-background="new 0 0 82.2 130.39"
	 xml:space="preserve">
<path fill="#DADADA" d="M81.609,120.98c0,4.644-3.765,8.409-8.408,8.409H9c-4.644,0-8.408-3.766-8.408-8.409V10.067
	c0-4.644,3.765-8.409,8.408-8.409h64.201c4.644,0,8.408,3.765,8.408,8.409V120.98z"/>
<g>
	<g>
		<defs>
			<rect id="SVGID_1_" x="2.81" y="32.656" width="38.291" height="58.343"/>
		</defs>
		<clipPath id="SVGID_2_">
			<use xlink:href="#SVGID_1_"  overflow="visible"/>
		</clipPath>
		<g clip-path="url(#SVGID_2_)">
			<path fill="#FFFFFF" stroke="#000000" stroke-width="2" stroke-miterlimit="10" d="M66.961,53.325c0,0,6.617-16.823-0.882-16.025
				c-7.499,0.797-10.439,4.987-10.439,4.987s-1.765-3.394-13.086-4.19C31.231,37.3,18.881,45.3,18.881,45.3
				s-7.035-3.957-9.116-3.013c-2.94,1.335-3.017,7.198,1.029,15.009c4.45,8.59,11.849,27.859,29.472,27.643
				C60.974,84.683,65.652,57.215,66.961,53.325z"/>
			<circle cx="50.924" cy="51.48" r="1.882"/>
			<circle cx="24.843" cy="54.495" r="1.881"/>
			<path d="M60.382,45.056c0,0,2.867,5.072,3.308,3.529c0.441-1.545,2.537-6.531,0.662-6.298
				C62.477,42.519,60.382,45.056,60.382,45.056z"/>
			<path d="M16.156,49.077c0,0-2.867,5.072-3.309,3.529c-0.441-1.545-2.536-6.53-0.662-6.298
				C14.061,46.54,16.156,49.077,16.156,49.077z"/>
			<path d="M38.566,73.712c1.564,0.007,2.073-2.047-0.003-2.047c-1.413,0-1.853,0.537-1.937,1.018
				C36.535,73.204,37.099,73.706,38.566,73.712z"/>
			<path d="M43.634,73.712c-1.563,0.007-2.073-2.047,0.004-2.047c1.412,0,1.853,0.537,1.937,1.018
				C45.665,73.204,45.102,73.706,43.634,73.712z"/>
		</g>
	</g>
	<g>
		<defs>
			<rect id="SVGID_3_" x="41.101" y="32.656" width="38.29" height="58.343"/>
		</defs>
		<clipPath id="SVGID_4_">
			<use xlink:href="#SVGID_3_"  overflow="visible"/>
		</clipPath>
		<g clip-path="url(#SVGID_4_)">
			<path fill="#FFFFFF" stroke="#000000" stroke-width="2" stroke-miterlimit="10" d="M15.24,53.325c0,0-6.617-16.823,0.882-16.025
				c7.499,0.797,10.438,4.987,10.438,4.987s1.766-3.394,13.087-4.19S63.32,45.3,63.32,45.3s7.034-3.957,9.115-3.013
				c2.941,1.335,3.017,7.198-1.028,15.009c-4.451,8.59-12.181,26.943-29.473,27.643C21.243,85.775,16.549,57.215,15.24,53.325z"/>
			<circle cx="31.276" cy="51.48" r="1.882"/>
			<circle cx="57.358" cy="54.495" r="1.881"/>
			<path d="M21.819,45.056c0,0-2.867,5.072-3.308,3.529c-0.441-1.545-2.537-6.531-0.662-6.298
				C19.725,42.519,21.819,45.056,21.819,45.056z"/>
			<path d="M66.045,49.077c0,0,2.867,5.072,3.308,3.529c0.441-1.545,2.536-6.53,0.662-6.298
				C68.14,46.54,66.045,49.077,66.045,49.077z"/>
			<path d="M43.634,73.712c-1.563,0.007-2.072-2.047,0.004-2.047c1.413,0,1.853,0.537,1.937,1.018
				C45.666,73.204,45.103,73.706,43.634,73.712z"/>
			<path d="M38.566,73.712c1.563,0.007,2.073-2.047-0.003-2.047c-1.413,0-1.853,0.537-1.938,1.018
				C36.535,73.204,37.099,73.706,38.566,73.712z"/>
		</g>
	</g>
	<path fill="#FFFFFF" stroke="#000000" stroke-width="2" stroke-miterlimit="10" d="M34.519,79.364c0,0,5.416,2.459,6.458-0.041"/>
	<path fill="#FFFFFF" stroke="#000000" stroke-width="2" stroke-miterlimit="10" d="M48.885,79.364c0,0-5.158,2.521-6.458-0.041"/>
	<polygon points="40.664,76.667 39.935,79.031 41.685,79.823 43.435,79.031 42.602,76.489 	"/>
	<path fill="#3C3C3A" d="M49.227,71.073c0,3.451-3.694,6.25-8.25,6.25c-4.557,0-8.25-2.799-8.25-6.25c0-3.452,3.693-8.25,8.25-8.25
		C45.532,62.823,49.227,67.621,49.227,71.073z"/>
	<ellipse cx="37.903" cy="73.065" rx="2.031" ry="0.942"/>
	<ellipse cx="44.458" cy="73.065" rx="2.031" ry="0.942"/>
</g>
</svg>
