<?xml version="1.0" encoding="utf-8"?>
<!-- Generator: Adobe Illustrator 16.0.0, SVG Export Plug-In . SVG Version: 6.00 Build 0)  -->
<!DOCTYPE svg PUBLIC "-//W3C//DTD SVG 1.1//EN" "http://www.w3.org/Graphics/SVG/1.1/DTD/svg11.dtd" [
	<!ENTITY ns_flows "http://ns.adobe.com/Flows/1.0/">
	<!ENTITY ns_extend "http://ns.adobe.com/Extensibility/1.0/">
	<!ENTITY ns_ai "http://ns.adobe.com/AdobeIllustrator/10.0/">
	<!ENTITY ns_graphs "http://ns.adobe.com/Graphs/1.0/">
]>
<svg version="1.1" id="Layer_1" xmlns:x="&ns_extend;" xmlns:i="&ns_ai;" xmlns:graph="&ns_graphs;"
	 xmlns="http://www.w3.org/2000/svg" xmlns:xlink="http://www.w3.org/1999/xlink" xmlns:a="http://ns.adobe.com/AdobeSVGViewerExtensions/3.0/"
	 x="0px" y="0px" width="102.05px" height="82.2px" viewBox="0 0 102.05 82.2" enable-background="new 0 0 102.05 82.2"
	 xml:space="preserve">
<g>
	<path fill="#FFFFFF" d="M44.547,45.199c0,0-13.655-11.176-17.051-13.12c-3.299-1.889-16.764-6.495-22.894,0.655
		C0.354,37.691-6.068,72.816,19.11,75.232C44.288,77.648,42.606,50.715,44.547,45.199z"/>
	<path fill="#FFFFFF" d="M53.819,38.887c4.032-2.183,9.193-7.355,18.081-3.064c0,0,6.845,5.21,11.952,9.296
		c5.108,4.087,7.151,4.495,9.604,4.087c0,0-10.474,9.441-16.958,17.367c-5.517,6.742-12.667,5.924-15.527,4.902
		C58.109,70.453,32.258,50.562,53.819,38.887z"/>
	<path fill="#FFFFFF" d="M22.573,75.386c0,0-4.282-28.171,18.703-33.382c22.985-5.209,20.228,2.656,24.824,7.561
		c4.598,4.903,13.179,15.324,0,17.775c-13.178,2.451-22.679,11.033-27.889,13.178C33.002,82.663,25.772,80.903,22.573,75.386z"/>
	<path fill="#FFFFFF" d="M92.639,60.033c3.776-1.535,9.55-4.8,8.732-6.87c-0.818-2.07-7.125-10.049-15.625-5.209
		c-9.675,5.508-12.188,21.442-12.188,21.442S86.497,62.533,92.639,60.033z"/>
</g>
<g>
	<path fill="#FFE25A" d="M40.129,46.702c0,0-10.508-9.623-13.816-11.5c-2.777-1.576-14.591-4.979-19.74,1.029
		C3.003,40.396-2.393,69.903,18.76,71.934S38.499,51.336,40.129,46.702z"/>
	<path fill="#FFE25A" d="M54.29,41.638c3.388-1.834,7.724-6.179,15.19-2.574c0,0,5.75,4.377,10.041,7.81
		c4.291,3.434,6.008,3.776,8.067,3.434c0,0-8.799,7.932-14.246,14.59c-4.635,5.664-10.642,4.977-13.045,4.119
		C57.895,68.157,36.176,51.446,54.29,41.638z"/>
	<path fill="#FDC200" d="M25.196,73.563c0,0-4.377-24.631,14.933-29.008c19.311-4.377,16.993,2.231,20.855,6.352
		c3.862,4.119,11.071,12.873,0,14.933s-19.053,9.269-23.43,11.071C33.178,78.713,27.884,78.198,25.196,73.563z"/>
	<path fill="#FDC200" d="M86.902,59.403c3.173-1.29,10.643-3.902,9.956-5.642c-0.688-1.739-6.352-8.433-13.217-2.082
		c-6.866,6.351-12.77,15.59-12.77,15.59S81.743,61.503,86.902,59.403z"/>
</g>
<g>
	<path fill="#FFFFFF" d="M44.571,30.797c0,0-15.979-19.479-9.934-26.843c1.669-2.033,3.231-3.157,9.934-3.157"/>
	<path fill="#FFFFFF" d="M44.521,30.797c0,0,15.979-19.479,9.934-26.843c-1.669-2.033-3.23-3.157-9.934-3.157"/>
</g>
</svg>
